<mxfile host="app.diagrams.net" modified="2023-08-29T18:23:32.835Z" agent="Mozilla/5.0 (Windows NT 10.0; Win64; x64) AppleWebKit/537.36 (KHTML, like Gecko) Chrome/116.0.0.0 Safari/537.36 Edg/116.0.1938.62" etag="KV11GmtRZLtn5TvNFJ61" version="21.7.0" type="device">
  <diagram name="PÃ¡gina-1" id="jV5ZQtaH6-ISbzheC-0J">
    <mxGraphModel dx="1212" dy="692" grid="1" gridSize="10" guides="1" tooltips="1" connect="1" arrows="1" fold="1" page="1" pageScale="1" pageWidth="827" pageHeight="1169" math="0" shadow="0">
      <root>
        <mxCell id="0" />
        <mxCell id="1" parent="0" />
        <mxCell id="Sr_p3GZKJ0UTI7LseODU-1" value="" style="rhombus;whiteSpace=wrap;html=1;rounded=1;arcSize=50;strokeColor=none;" vertex="1" parent="1">
          <mxGeometry x="200" y="50" width="400" height="400" as="geometry" />
        </mxCell>
        <mxCell id="Sr_p3GZKJ0UTI7LseODU-2" value="" style="ellipse;whiteSpace=wrap;html=1;aspect=fixed;fillColor=#050505;" vertex="1" parent="1">
          <mxGeometry x="293.75" y="143.75" width="212.5" height="212.5" as="geometry" />
        </mxCell>
        <mxCell id="Sr_p3GZKJ0UTI7LseODU-3" value="" style="ellipse;whiteSpace=wrap;html=1;aspect=fixed;" vertex="1" parent="1">
          <mxGeometry x="327.5" y="177.5" width="145" height="145" as="geometry" />
        </mxCell>
        <mxCell id="Sr_p3GZKJ0UTI7LseODU-4" value="" style="ellipse;whiteSpace=wrap;html=1;aspect=fixed;fillColor=#030303;" vertex="1" parent="1">
          <mxGeometry x="377.5" y="227.5" width="45" height="45" as="geometry" />
        </mxCell>
      </root>
    </mxGraphModel>
  </diagram>
</mxfile>
